<svg width="15" height="15" viewBox="0 0 15 15" fill="none" xmlns="http://www.w3.org/2000/svg">
<path opacity="0.16" d="M12.4584 6.79173C12.4584 8.29462 11.8614 9.73596 10.7987 10.7987C9.73596 11.8614 8.29462 12.4584 6.79173 12.4584C5.28883 12.4584 3.8475 11.8614 2.78479 10.7987C1.72208 9.73596 1.12506 8.29462 1.12506 6.79173C1.12506 5.28883 1.72208 3.8475 2.78479 2.78479C3.8475 1.72208 5.28883 1.12506 6.79173 1.12506C8.29462 1.12506 9.73596 1.72208 10.7987 2.78479C11.8614 3.8475 12.4584 5.28883 12.4584 6.79173Z" fill="#787878"/>
<path d="M13.875 13.875L10.7987 10.7987M10.7987 10.7987C11.3249 10.2725 11.7423 9.64778 12.0271 8.96026C12.3119 8.27273 12.4585 7.53584 12.4585 6.79166C12.4585 6.04748 12.3119 5.31059 12.0271 4.62306C11.7423 3.93554 11.3249 3.31083 10.7987 2.78462C10.2725 2.25841 9.64778 1.84099 8.96026 1.55621C8.27273 1.27142 7.53584 1.12485 6.79166 1.12485C6.04748 1.12485 5.31059 1.27142 4.62306 1.55621C3.93554 1.84099 3.31083 2.25841 2.78462 2.78462C1.72188 3.84735 1.12485 5.28873 1.12485 6.79166C1.12485 8.29459 1.72188 9.73597 2.78462 10.7987C3.84735 11.8614 5.28873 12.4585 6.79166 12.4585C8.29459 12.4585 9.73597 11.8614 10.7987 10.7987Z" stroke="#787878" stroke-width="2" stroke-linecap="round" stroke-linejoin="round"/>
</svg>
