<svg width="17" height="19" viewBox="0 0 17 19" fill="none" xmlns="http://www.w3.org/2000/svg">
<path d="M9.47325 0.387266C9.21022 0.138589 8.86197 3.05176e-05 8.5 3.05176e-05C8.13803 3.05176e-05 7.78978 0.138589 7.52675 0.387266L0.664418 6.87277C0.4543 7.0716 0.286991 7.31124 0.172743 7.57701C0.0584957 7.84277 -0.00028556 8.12907 1.04302e-06 8.41835V16.3092C0.000376603 16.8725 0.224426 17.4127 0.6229 17.8109C1.02137 18.2091 1.56166 18.4328 2.125 18.4328H4.25C4.81359 18.4328 5.35409 18.2089 5.7526 17.8104C6.15112 17.4119 6.375 16.8713 6.375 16.3078V12.7661C6.375 12.5782 6.44963 12.3981 6.58247 12.2652C6.7153 12.1324 6.89547 12.0578 7.08333 12.0578H9.91667C10.1045 12.0578 10.2847 12.1324 10.4175 12.2652C10.5504 12.3981 10.625 12.5782 10.625 12.7661V16.3078C10.625 16.8713 10.8489 17.4119 11.2474 17.8104C11.6459 18.2089 12.1864 18.4328 12.75 18.4328H14.875C15.4386 18.4328 15.9791 18.2089 16.3776 17.8104C16.7761 17.4119 17 16.8713 17 16.3078V8.41693C16.9999 8.12778 16.9408 7.8417 16.8263 7.57618C16.7118 7.31067 16.5444 7.07131 16.3342 6.87277L9.47325 0.384432V0.387266Z" fill="#787878"/>
</svg>
