<svg width="13" height="16" viewBox="0 0 13 16" fill="none" xmlns="http://www.w3.org/2000/svg">
<path d="M5.28813 13.3352C5.64858 13.2589 7.84501 13.2589 8.20547 13.3352C8.51362 13.4063 8.84684 13.5726 8.84684 13.9357C8.82893 14.2814 8.62613 14.5879 8.34593 14.7825C7.9826 15.0657 7.55622 15.2451 7.11048 15.3097C6.86397 15.3417 6.62175 15.3424 6.38383 15.3097C5.93738 15.2451 5.51099 15.0657 5.14839 14.7818C4.86747 14.5879 4.66467 14.2814 4.64675 13.9357C4.64675 13.5726 4.97998 13.4063 5.28813 13.3352ZM6.78937 0.913116C8.28924 0.913116 9.82137 1.6248 10.7315 2.80561C11.322 3.56595 11.5928 4.32556 11.5928 5.50637V5.81356C11.5928 6.71914 11.8322 7.2529 12.3589 7.868C12.7581 8.32115 12.8856 8.90284 12.8856 9.53392C12.8856 10.1643 12.6785 10.7627 12.2636 11.2485C11.7204 11.8309 10.9543 12.2027 10.1725 12.2674C9.03954 12.3639 7.90585 12.4453 6.75712 12.4453C5.60767 12.4453 4.4747 12.3966 3.34173 12.2674C2.55918 12.2027 1.79312 11.8309 1.25064 11.2485C0.835718 10.7627 0.627899 10.1643 0.627899 9.53392C0.627899 8.90284 0.756173 8.32115 1.15461 7.868C1.69781 7.2529 1.92139 6.71914 1.92139 5.81356V5.50637C1.92139 4.29361 2.2238 3.50059 2.84654 2.72428C3.77241 1.59212 5.25652 0.913116 6.72487 0.913116H6.78937Z" fill="#787878"/>
</svg>
